<svg width="192" height="108" viewBox="0 0 192 108" fill="none" xmlns="http://www.w3.org/2000/svg">
<g clip-path="url(#clip0_24304_22016)">
<path d="M80.3795 56.4883C80.3795 60.0988 81.2691 61.093 83.6761 61.093V61.9825H73.2109V61.093C75.2516 61.093 76.5074 60.4128 76.5074 56.5407V38.3314C76.5074 34.7732 75.6179 33.7267 73.2109 33.7267V32.8372H83.833C91.8912 32.8372 95.1354 37.1279 95.1354 41.1046C95.1354 45.9186 91.4726 48.6395 84.8795 48.6395C83.6237 48.6395 82.5249 48.5872 80.3795 48.3255V56.4883ZM80.3795 47.0697C81.6877 47.5407 82.4726 47.593 83.99 47.593C88.333 47.593 91.054 45.2383 91.054 41.2616C91.054 38.1744 89.3272 33.9883 83.99 33.9883H80.3795V47.0697Z" fill="#545454"/>
<path d="M95.7609 50.9941C95.6562 59.1046 100.47 61.093 102.929 61.093C105.441 61.093 106.697 60.2034 109.313 57.3255V58.686C107.116 61.4592 105.022 62.5581 101.883 62.5581C96.2318 62.5581 92.1504 58.6337 92.1504 53.1918C92.1504 47.7499 96.1271 43.4592 101.203 43.4592C105.389 43.4592 109.261 46.8081 108.999 50.9941H95.7609ZM105.598 50.1569C105.755 46.1802 103.034 44.5581 100.784 44.5581C97.8016 44.5581 96.0225 46.8081 95.8132 50.1569H105.598Z" fill="#545454"/>
<path d="M128.516 58.1104C128.516 60.4651 129.04 61.1453 131.551 61.1453V62.0348H121.923V61.1453C124.383 61.1453 125.011 60.5697 125.011 58.8953V49.4767C125.011 46.5988 122.918 45.343 120.982 45.343C119.202 45.343 117.633 46.4418 115.854 48.8488V57.6395C115.854 60.3604 116.22 61.093 118.888 61.093V61.9825H109.365V61.093C111.772 61.093 112.348 60.8837 112.348 57.6395V47.5406C112.348 45.343 111.772 44.872 109.365 44.872V44.0348L114.964 43.4592H115.854V47.0697C117.999 44.6104 120.092 43.4592 122.342 43.4592C125.325 43.4592 128.464 45.6046 128.464 49.8953V58.1104H128.516Z" fill="#545454"/>
<path d="M150.55 58.1104C150.55 60.4651 151.073 61.1453 153.584 61.1453V62.0348H143.957V61.1453C146.416 61.1453 147.044 60.5697 147.044 58.8953V49.4767C147.044 46.5988 144.951 45.343 143.015 45.343C141.236 45.343 139.666 46.4418 137.887 48.8488V57.6395C137.887 60.3604 138.253 61.093 140.922 61.093V61.9825H131.398V61.093C133.805 61.093 134.381 60.8837 134.381 57.6395V47.5406C134.381 45.343 133.805 44.872 131.398 44.872V44.0348L136.997 43.4592H137.887V47.0697C140.032 44.6104 142.125 43.4592 144.375 43.4592C147.358 43.4592 150.497 45.6046 150.497 49.8953V58.1104H150.55Z" fill="#545454"/>
<path d="M68.0818 32H28.0004C28.0004 32 28.0004 51.8837 28.0004 51.9884C27.9481 60.6744 32.8144 66.9535 36.8434 70.7209C41.2911 74.8546 46.2097 77.2093 47.8318 77.5756L48.0411 77.6279L48.2504 77.5756C49.8725 77.2093 54.7911 74.8546 59.2388 70.7209C63.2679 66.9535 68.0818 60.6744 68.0818 51.9884C68.0818 51.7267 68.0818 32 68.0818 32Z" stroke="#545454" stroke-width="0.523256"/>
<path d="M28.9961 33.0466C28.9961 33.0466 29.0484 44.6628 28.9961 44.6105H67.0368C67.0368 39.1687 67.0368 33.0466 67.0368 33.0466H28.9961ZM39.1996 40.3722C39.2519 40.4245 39.3042 40.4768 39.3566 40.5291C39.4089 40.5815 39.4089 40.6861 39.4089 40.7384C39.4089 40.8431 39.4089 40.8954 39.3566 40.9477C39.3042 41.0001 39.2519 41.0524 39.1996 41.1047C39.0949 41.157 39.0426 41.2617 39.0426 41.3663V42.0989H34.8566H30.6705V41.3663C30.6705 41.2617 30.5659 41.157 30.5135 41.1047C30.4612 41.0524 30.4089 41.0001 30.3566 40.9477C30.3042 40.8954 30.3042 40.7908 30.3042 40.7384C30.3042 40.6338 30.3042 40.5815 30.3566 40.5291C30.4089 40.4768 30.4612 40.4245 30.5135 40.3722C30.6182 40.3198 30.6705 40.2152 30.6705 40.1105V37.8082C30.6705 37.7035 30.5659 37.5989 30.5135 37.5466C30.4612 37.4942 30.4089 37.4419 30.3566 37.3896C30.2519 37.2849 30.2519 37.2326 30.2519 37.128C30.2519 37.0233 30.2519 36.971 30.3042 36.9187C30.3566 36.8663 30.4089 36.814 30.4612 36.7617C30.5659 36.7094 30.6705 36.6047 30.6705 36.5001V35.7675H30.7752C31.2461 35.7675 31.717 35.7675 31.9787 35.6105C32.0833 35.5582 32.188 35.5059 32.3449 35.4535C32.6066 35.2966 32.8682 35.0873 33.3391 35.0873C33.7054 35.0873 34.0194 35.2442 34.281 35.3489C34.4903 35.4535 34.6996 35.5059 34.8042 35.5059H34.8566C35.0135 35.5059 35.1705 35.4535 35.3798 35.3489C35.6414 35.2442 36.0077 35.0873 36.3217 35.0873C36.7403 35.0873 37.0542 35.2966 37.3159 35.4535C37.4205 35.5059 37.5252 35.6105 37.6821 35.6628C37.9961 35.7675 38.4147 35.8198 38.8856 35.8198H38.9903V36.5524C38.9903 36.657 39.0949 36.7617 39.1473 36.814C39.1996 36.8663 39.2519 36.9187 39.3042 36.971C39.3566 37.0233 39.3566 37.128 39.3566 37.1803C39.3566 37.2849 39.3566 37.3373 39.3042 37.3896C39.2519 37.4419 39.1996 37.4942 39.1473 37.5466C39.0426 37.5989 38.9903 37.7035 38.9903 37.8082V40.1105C39.0426 40.2152 39.1473 40.2675 39.1996 40.3722ZM55.3159 41.5756C54.688 42.6221 53.4321 42.8838 53.3798 42.8838C53.1182 42.9361 52.8566 42.9361 52.6473 42.9361C51.3391 42.9361 50.1356 42.3605 48.8798 41.7326C48.7228 41.6803 48.5659 41.5756 48.4089 41.471C47.624 41.0524 46.5252 40.4245 45.5833 40.4245C45.3217 40.4245 45.06 40.4768 44.8507 40.5815H44.7984V40.6338C44.7984 40.7384 44.7461 40.8954 44.7461 41.0001C44.5891 41.4187 44.1182 41.8373 43.8566 41.9942C43.3333 42.3605 42.6531 42.7791 41.8159 42.7791C41.7112 42.7791 41.5542 42.7791 41.5019 42.7268C41.3449 42.6745 41.2403 42.5698 41.1356 42.4652C41.0833 42.4128 41.031 42.3605 41.031 42.2559C41.031 42.2035 40.9787 42.1512 40.9787 42.0466V41.9942H40.9263C40.6124 41.8896 40.4031 41.6803 40.4031 41.4187C40.4031 41.2094 40.56 41.0524 40.6647 40.8954C40.874 40.6338 41.0833 40.4245 40.7694 40.1628C40.717 40.1105 40.717 40.1105 40.6647 40.1105C40.6124 40.0582 40.56 40.0582 40.56 40.0059C40.2984 39.7442 40.4554 39.1163 40.56 38.8024V38.7501C40.6647 38.3838 40.8217 37.9652 41.031 37.5466C41.3449 36.971 41.6589 36.2908 42.1821 35.8722C42.1821 35.8722 42.1821 35.8722 42.2345 35.8722C42.2345 35.8722 42.2345 35.8722 42.2868 35.8722C42.2868 35.8722 42.3391 35.9768 42.4438 36.0815L42.5484 36.2384L42.6007 36.0815C42.7577 35.6628 42.967 35.4012 43.281 35.2966C43.5949 35.1919 43.9089 35.3489 44.0659 35.4535L44.1182 35.5059L44.1705 35.4535C44.2752 35.2966 44.4321 35.0873 44.7461 35.0873C45.06 35.0873 45.374 35.2966 45.4787 35.4535L45.531 35.5059L45.5833 35.4535C45.7403 35.3489 46.1066 35.0349 46.5252 35.0873C46.8914 35.1396 47.0484 35.4535 47.1007 35.6105L47.1531 35.7152L47.2054 35.6628C47.3624 35.5582 47.7287 35.4535 48.0426 35.6628C48.2519 35.8198 48.2519 36.0291 48.2519 36.1861V36.2908H48.3566C48.6182 36.2384 49.0368 36.2384 49.2984 36.5001C49.5077 36.7094 49.5077 36.971 49.5077 37.1803V37.2849H49.6124C49.8217 37.2849 50.1356 37.2849 50.2926 37.5466C50.3973 37.7035 50.3449 37.9652 50.3449 38.0698V38.1222H50.3973C50.5019 38.1745 50.7635 38.2268 50.8159 38.3838C50.8682 38.5408 50.8682 38.7501 50.7635 39.0117V39.064H50.8159C50.9205 39.1163 51.1298 39.221 51.2345 39.4303C51.3391 39.6396 51.3391 39.9012 51.2345 40.2152V40.2675L51.2868 40.3198C51.5484 40.5815 51.8624 40.7908 52.124 41.0001C52.6996 41.4187 53.5368 41.628 54.1647 41.157C54.374 40.9477 54.4787 40.6338 54.4263 40.3198C54.374 40.0582 54.1647 39.8489 53.9031 39.7966C53.4321 39.6919 53.1182 40.1105 52.8042 40.5291C52.8042 40.5291 52.8042 40.5291 52.7519 40.5291C52.7519 40.5291 52.6996 40.5291 52.6996 40.4768C52.438 39.8489 52.438 39.3256 52.6473 38.907C52.8566 38.5408 53.2228 38.3315 53.7461 38.2268H53.7984V38.1745C53.7984 37.4419 53.9554 36.8663 54.3217 36.5524C54.531 36.3431 54.9496 36.1338 55.6298 36.2384H55.6821V36.2908C55.1589 37.4942 55.3159 37.9652 55.5775 38.907C55.5775 39.0117 55.6298 39.064 55.6298 39.1687C55.7868 40.1105 55.6821 40.9477 55.3159 41.5756ZM65.5717 40.3722C65.624 40.4245 65.6763 40.4768 65.7287 40.5291C65.781 40.5815 65.781 40.6861 65.781 40.7384C65.781 40.8431 65.781 40.8954 65.7287 40.9477C65.6763 41.0001 65.624 41.0524 65.5717 41.1047C65.467 41.157 65.4147 41.2617 65.4147 41.3663V42.0989H61.2287H57.0426V41.3663C57.0426 41.2617 56.938 41.157 56.8856 41.1047C56.8333 41.0524 56.781 41.0001 56.7287 40.9477C56.6763 40.8954 56.6763 40.7908 56.6763 40.7384C56.6763 40.6338 56.6763 40.5815 56.7287 40.5291C56.781 40.4768 56.8333 40.4245 56.8856 40.3722C56.9903 40.3198 57.0426 40.2152 57.0426 40.1105V37.8082C57.0426 37.7035 56.938 37.5989 56.8856 37.5466C56.8333 37.4942 56.781 37.4419 56.7287 37.3896C56.6763 37.3373 56.6763 37.2326 56.6763 37.1803C56.6763 37.0756 56.6763 37.0233 56.7287 36.971C56.781 36.9187 56.8333 36.8663 56.8856 36.814C56.9903 36.7617 57.0426 36.657 57.0426 36.5524V35.7675H57.1473C57.6182 35.7675 58.0891 35.7675 58.3507 35.6105C58.4554 35.5582 58.6124 35.5059 58.717 35.4012C58.9787 35.2442 59.2403 35.0349 59.7112 35.0349C60.0775 35.0349 60.3914 35.1919 60.6531 35.2966C60.8624 35.4012 61.0717 35.4535 61.1763 35.4535H61.2287C61.3856 35.4535 61.5426 35.4012 61.7519 35.2966C62.0135 35.1919 62.3798 35.0349 62.6938 35.0349C63.1124 35.0349 63.4263 35.2442 63.688 35.4012C63.7926 35.4535 63.8973 35.5582 64.0542 35.6105C64.3682 35.7152 64.7868 35.7675 65.2577 35.7675H65.3624V36.5001C65.3624 36.6047 65.467 36.7094 65.5193 36.7617C65.5717 36.814 65.624 36.8663 65.6763 36.9187C65.7287 36.971 65.7287 37.0756 65.7287 37.128C65.7287 37.2326 65.7287 37.2849 65.6763 37.3373C65.624 37.3896 65.5717 37.4419 65.5193 37.4942C65.4147 37.5466 65.3624 37.6512 65.3624 37.7559V40.0582C65.4147 40.2152 65.5194 40.2675 65.5717 40.3722Z" fill="#545454"/>
<path d="M42.1344 39.8489C42.2913 39.8489 42.396 39.9012 42.5006 40.0059C42.553 40.0582 42.6053 40.0582 42.6053 40.1105C42.7099 40.2152 42.7099 40.3198 42.6053 40.4245C42.5006 40.4768 42.396 40.5814 42.3437 40.6338C42.1867 40.7384 41.9251 40.9477 41.7158 40.7907C41.6111 40.7384 41.8204 40.5814 41.7158 40.2675C41.6634 39.9535 41.9251 39.8489 42.1344 39.8489Z" fill="#545454"/>
<path d="M52.6017 43.0408C51.2935 43.0408 50.0377 42.4652 48.8342 41.8373C48.6773 41.785 48.5203 41.6804 48.3633 41.5757C47.3691 41.0524 45.8517 40.2152 44.8575 40.7385C44.8575 40.8431 44.8052 41.0001 44.8052 41.1048C44.6482 41.5234 44.1773 41.942 43.9156 42.099C43.3924 42.5176 42.7121 42.8838 41.8226 42.8838C41.6656 42.8838 41.561 42.8838 41.4563 42.8315C41.2993 42.7792 41.1424 42.6745 41.0377 42.5699C40.9854 42.5176 40.9331 42.4129 40.9331 42.3606C40.8807 42.3083 40.8807 42.2036 40.8807 42.1513C40.5145 42.0466 40.3052 41.785 40.3052 41.5234C40.3052 41.3141 40.4621 41.1048 40.6191 40.9478C40.8807 40.6862 40.9854 40.5292 40.7238 40.3199C40.7238 40.3199 40.6714 40.2676 40.6191 40.2676C40.5668 40.2152 40.5145 40.2152 40.4621 40.1629C40.1482 39.849 40.3575 39.2211 40.4098 38.8548V38.8024C40.5145 38.4362 40.6714 38.0176 40.8807 37.5466C41.247 36.9187 41.6133 36.2908 42.1366 35.8199C42.1889 35.8199 42.1889 35.7676 42.2412 35.7676C42.2935 35.7676 42.2935 35.7676 42.3459 35.8199C42.3459 35.8722 42.5552 36.1862 42.7645 36.5524C43.654 36.0292 44.9098 35.9769 45.0668 35.9769C45.8517 35.9245 47.0028 36.0815 47.9447 36.8141C48.5203 37.285 49.0435 37.8606 49.5145 38.3838C49.6191 38.5408 49.7761 38.6978 49.8807 38.8024C50.6133 39.6397 51.2935 40.2676 52.0261 40.7908C52.5493 41.1571 53.3866 41.3664 53.9621 40.9478C54.1714 40.7908 54.2761 40.4769 54.1714 40.1629C54.1191 39.9013 53.9621 39.7443 53.7005 39.692C53.2819 39.5873 52.968 40.0059 52.7063 40.4245C52.7063 40.4769 52.654 40.4769 52.6017 40.4769C52.5493 40.4769 52.497 40.4245 52.497 40.4245C52.2354 39.7443 52.2354 39.2211 52.4447 38.8024C52.654 38.4362 53.0726 38.1745 53.5959 38.1222C53.5959 37.3373 53.7528 36.7617 54.1714 36.4478C54.3807 36.2385 54.8517 36.0292 55.5319 36.0815C55.5842 36.0815 55.5842 36.1338 55.6366 36.1338C55.6366 36.1862 55.6366 36.1862 55.6366 36.2385C55.1656 37.442 55.2703 37.8606 55.5319 38.8548C55.5319 38.9594 55.5842 39.0117 55.5842 39.1164C55.8459 40.0583 55.7412 40.8955 55.3226 41.5757C54.6424 42.6222 53.3866 42.8838 53.3342 42.9362C53.1249 42.9885 52.8633 43.0408 52.6017 43.0408ZM45.59 40.3199C46.5319 40.3199 47.6307 40.8955 48.468 41.3664C48.6249 41.4711 48.7819 41.5234 48.9389 41.628C50.404 42.3606 51.8168 43.0408 53.3342 42.7269C53.3342 42.7269 54.59 42.4652 55.1656 41.5234C55.5319 40.8955 55.6366 40.1629 55.3749 39.2734C55.3749 39.1687 55.3226 39.0641 55.3226 39.0117C55.061 38.0699 54.904 37.5466 55.3749 36.3955C54.8517 36.3431 54.5377 36.5524 54.3807 36.7094C54.0145 37.0234 53.8575 37.5466 53.9098 38.3315C53.9098 38.3838 53.8575 38.4362 53.8052 38.4362C53.3342 38.4885 52.9156 38.6978 52.7586 39.0117C52.5493 39.3257 52.5493 39.7443 52.7063 40.2152C52.9156 39.9013 53.3342 39.4827 53.8575 39.5873C54.1714 39.6397 54.4331 39.9013 54.4854 40.2152C54.59 40.5815 54.4331 41.0001 54.1714 41.2094C53.4912 41.7327 52.5493 41.5234 51.9214 41.1048C51.1889 40.5815 50.5086 39.9013 49.7238 39.0641C49.6191 38.9071 49.4621 38.7501 49.3575 38.6455C48.8866 38.1222 48.4156 37.5466 47.84 37.0757C46.9505 36.3955 45.8517 36.2385 45.1191 36.2908C44.5959 36.2908 43.6017 36.4478 42.9214 36.8664C43.1307 37.285 43.34 37.8083 43.34 38.1745C43.34 38.2269 43.34 38.3315 43.2877 38.3838C43.7587 38.0699 44.3866 38.2792 44.7005 38.6455C44.7528 38.7501 44.8575 38.8548 44.9621 38.9594C45.0668 39.1687 45.2238 39.378 45.4331 39.535C45.4331 39.535 45.4854 39.5873 45.4854 39.6397C45.4854 39.692 45.4854 39.692 45.4331 39.7443C45.4331 39.7443 45.1191 39.9536 44.7005 40.3199C44.6482 40.3722 44.5959 40.4245 44.5435 40.4245C44.5435 40.4245 44.5435 40.4245 44.4912 40.4245L44.8575 40.4769C45.0145 40.3722 45.2761 40.3199 45.59 40.3199ZM42.1889 36.1338C41.7703 36.5524 41.4563 37.128 41.1947 37.6513C40.9854 38.0699 40.8284 38.4362 40.7238 38.8548V38.9071C40.6714 39.1687 40.5145 39.7443 40.7238 39.9536C40.7761 40.0059 40.7761 40.0059 40.8284 40.0583C40.8807 40.1106 40.8807 40.1106 40.9331 40.1629C41.3517 40.5815 41.0377 40.8955 40.8284 41.1571C40.7238 41.3141 40.5668 41.4187 40.5668 41.5757C40.5668 41.8897 40.9331 41.9943 41.0377 41.9943C41.09 41.9943 41.1424 42.0466 41.1424 42.099C41.1424 42.2036 41.1424 42.2559 41.1947 42.3083C41.1947 42.3606 41.247 42.4129 41.2993 42.4652C41.3517 42.5699 41.4563 42.6222 41.6133 42.6745C41.718 42.7269 41.7703 42.7269 41.8749 42.7269C42.6598 42.7269 43.2877 42.3606 43.811 41.9943C44.1249 41.785 44.4912 41.3664 44.5959 41.1048C44.6482 41.0001 44.6482 40.9478 44.6482 40.8431L44.1249 40.7385C44.0726 40.7385 44.0203 40.6862 44.0203 40.6338C44.0203 40.5292 44.1249 40.4769 44.2819 40.3199C44.3342 40.2676 44.3866 40.2152 44.4389 40.2152C44.7005 40.0059 44.9621 39.849 45.0668 39.7443C44.9098 39.5873 44.8052 39.378 44.7005 39.2211C44.5959 39.1164 44.5435 39.0117 44.4912 38.9071C44.2296 38.5931 43.7586 38.4362 43.34 38.6978C43.1831 38.8024 43.0261 38.9071 42.9214 39.0641C42.8168 39.1687 42.6598 39.2734 42.5552 39.378C42.5028 39.4304 42.4505 39.4304 42.3982 39.378C42.3459 39.3257 42.3459 39.2734 42.3982 39.2211L42.4505 39.1687C42.6075 39.0117 43.0261 38.5931 43.0261 38.3315C43.0261 37.4943 42.3982 36.4478 42.1889 36.1338Z" fill="#545454"/>
<path d="M41.3459 42.2036C41.2413 42.2036 41.1366 42.2036 40.9797 42.2036C40.9273 42.2036 40.875 42.1513 40.875 42.0467C40.875 41.9943 40.9273 41.942 41.032 41.942C41.6076 41.9943 42.3924 41.942 43.0727 41.2095C43.125 41.1571 43.1773 41.1571 43.2297 41.2095C43.282 41.2618 43.282 41.3141 43.2297 41.3664C42.7587 41.8897 42.0785 42.2036 41.3459 42.2036Z" fill="#545454"/>
<path d="M51.0782 40.3721C51.0259 40.3721 51.0259 40.3721 51.0782 40.3721C50.9736 40.3197 50.9736 40.2674 50.9736 40.2151C51.0782 39.9011 51.1305 39.6918 51.0259 39.4825C50.9212 39.2209 50.6073 39.1686 50.6073 39.1686C50.555 39.1686 50.555 39.1163 50.555 39.1163C50.555 39.0639 50.555 39.0639 50.555 39.0116C50.6073 38.9069 50.7119 38.5407 50.6073 38.3837C50.555 38.2267 50.2933 38.1744 50.1887 38.1744C50.1364 38.1744 50.1364 38.1744 50.084 38.1221C50.084 38.0697 50.084 38.0697 50.084 38.0174C50.1364 37.9128 50.1887 37.6511 50.084 37.4942C49.9271 37.2325 49.4561 37.3372 49.4561 37.3372C49.4038 37.3372 49.3515 37.3372 49.3515 37.2849C49.2991 37.2325 49.2991 37.2325 49.3515 37.1802C49.3515 37.1802 49.5084 36.7616 49.2468 36.5C48.9329 36.186 48.2526 36.3953 48.2526 36.3953C48.2003 36.3953 48.148 36.3953 48.148 36.343C48.0957 36.2907 48.0957 36.2907 48.0957 36.2383C48.0957 36.2383 48.2003 35.8721 47.991 35.7151C47.6247 35.4535 47.2061 35.7674 47.2061 35.7674C47.1538 35.7674 47.1538 35.8197 47.1015 35.7674C47.0491 35.7674 47.0491 35.7151 47.0491 35.6628C47.0491 35.6628 46.9968 35.1918 46.5782 35.1395C46.1596 35.0872 45.6887 35.5058 45.6887 35.5581C45.6887 35.5581 45.6364 35.6104 45.584 35.6104C45.5317 35.6104 45.5317 35.6104 45.4794 35.5581C45.4794 35.5581 45.1654 35.1395 44.7991 35.1918C44.4329 35.1918 44.2759 35.6104 44.2759 35.6104C44.2759 35.6628 44.2236 35.6628 44.1712 35.6628C44.1189 35.6628 44.1189 35.6628 44.0666 35.6104C44.0666 35.6104 43.7003 35.2442 43.334 35.4011C42.7584 35.6628 42.6538 36.2383 42.6015 36.3953C42.6015 36.4476 42.5491 36.5 42.4445 36.5C42.3922 36.5 42.3398 36.4476 42.3398 36.343C42.3922 36.1337 42.5491 35.4535 43.1247 35.2442C43.491 35.0872 43.805 35.2965 44.0143 35.4011C44.1189 35.2442 44.3282 34.9825 44.6945 34.9825C45.0608 34.9825 45.3747 35.2442 45.4794 35.3488C45.6364 35.1918 46.055 34.9302 46.4736 34.9825C46.8398 35.0349 47.0491 35.2965 47.1015 35.5581C47.3108 35.4535 47.6771 35.3488 48.0433 35.5581C48.305 35.7151 48.305 35.9767 48.305 36.1337C48.5666 36.0814 49.0375 36.0814 49.3515 36.343C49.6131 36.6046 49.6131 36.9186 49.5608 37.0756C49.7701 37.0756 50.084 37.0756 50.2933 37.3372C50.398 37.5465 50.398 37.7558 50.3457 37.9128C50.5026 37.9651 50.7119 38.0174 50.8166 38.2267C50.8689 38.436 50.8166 38.6976 50.7643 38.9069C50.8689 38.9593 51.0782 39.0639 51.2352 39.3256C51.3398 39.5872 51.3398 39.9011 51.1829 40.2151C51.1305 40.3197 51.1305 40.3721 51.0782 40.3721Z" fill="#545454"/>
<path d="M50.5055 41.9418C50.4532 41.9418 50.4009 41.8895 50.4009 41.8372C50.4532 41.4186 50.1916 41.3139 49.9822 41.2616C49.9299 41.2616 49.8776 41.2092 49.8253 41.2092C49.7206 41.1569 49.7206 40.9999 49.7206 40.843C49.7206 40.686 49.7206 40.4767 49.5636 40.372C49.3543 40.1627 48.9357 40.2674 48.9357 40.2674C48.8834 40.2674 48.8311 40.2674 48.8311 40.2674C48.7788 40.2674 48.7788 40.2151 48.7788 40.1627C48.7788 40.1627 48.8311 39.6918 48.5695 39.4825C48.3602 39.2732 47.9416 39.3255 47.7846 39.3779C47.7322 39.3779 47.7322 39.3779 47.6799 39.3779C47.6276 39.3779 47.6276 39.3255 47.6276 39.2732C47.6276 39.0116 47.5229 38.7499 47.3136 38.593C47.1043 38.4883 46.895 38.436 46.7381 38.5406C46.2671 38.8023 46.0578 38.8023 45.5869 38.436C45.4299 38.279 45.2729 38.279 45.116 38.3313C44.9067 38.3837 44.7497 38.5406 44.645 38.8023C44.5927 38.8546 44.5404 38.9069 44.4881 38.8546C44.4357 38.8023 44.3834 38.7499 44.4357 38.6976C44.5927 38.3837 44.802 38.1744 45.0636 38.122C45.2729 38.0697 45.4822 38.122 45.6916 38.279C46.1102 38.593 46.2148 38.5406 46.6334 38.3313C46.895 38.1744 47.209 38.2267 47.4183 38.3837C47.6799 38.5406 47.8369 38.8023 47.8369 39.1162C48.0462 39.1162 48.4125 39.0639 48.6741 39.2732C48.9357 39.4825 48.9357 39.7965 48.9357 40.0058C49.145 39.9534 49.459 39.9534 49.6683 40.2151C49.8253 40.4244 49.8776 40.6337 49.8776 40.843C49.8776 40.8953 49.8776 40.9999 49.8776 40.9999C49.8776 40.9999 49.9299 40.9999 49.9822 41.0523C50.1916 41.1046 50.6625 41.2616 50.5578 41.8895C50.6102 41.8895 50.5578 41.9418 50.5055 41.9418Z" fill="#545454"/>
<path d="M39.257 40.3199C39.1523 40.2676 39.1 40.2152 39.1 40.1106V37.8083C39.1 37.7559 39.1523 37.7036 39.257 37.599C39.3093 37.5466 39.3616 37.4943 39.414 37.442C39.5186 37.3373 39.5186 37.2327 39.5186 37.128C39.5186 37.0234 39.5186 36.9187 39.414 36.8664C39.3616 36.8141 39.3093 36.7618 39.257 36.7094C39.1523 36.6571 39.1 36.6048 39.1 36.5001V35.7152H38.8907C38.4721 35.7152 38.0012 35.7152 37.6872 35.5583C37.5826 35.5059 37.4779 35.4536 37.3209 35.349C37.0593 35.192 36.7454 34.9827 36.2744 34.9827C35.9082 34.9827 35.5942 35.1397 35.2803 35.2443C35.0709 35.349 34.914 35.4013 34.757 35.4013H34.7047H34.8093C34.7047 35.4013 34.4954 35.349 34.2861 35.2443C33.9721 35.1397 33.6582 34.9827 33.2919 34.9827C32.8209 34.9827 32.507 35.192 32.2454 35.349C32.193 35.4536 32.0884 35.5059 31.9314 35.5583C31.6698 35.6629 31.1989 35.7152 30.7803 35.7152H30.5709V36.5001C30.5709 36.5524 30.5186 36.6048 30.414 36.7094C30.3616 36.7618 30.3093 36.8141 30.257 36.8664C30.2047 36.9711 30.1523 37.0234 30.1523 37.128C30.1523 37.2327 30.1523 37.3373 30.257 37.3897C30.3093 37.442 30.3616 37.4943 30.414 37.5466C30.5186 37.599 30.5709 37.6513 30.5709 37.7559V40.0583C30.5709 40.1106 30.5186 40.1629 30.414 40.2676C30.3616 40.3199 30.3093 40.3722 30.257 40.4245C30.2047 40.5292 30.1523 40.5815 30.1523 40.6862C30.1523 40.7908 30.1523 40.8955 30.257 40.9478C30.3093 41.0001 30.3616 41.0524 30.414 41.1048C30.5186 41.1571 30.5709 41.2094 30.5709 41.3141V42.099H34.8616H39.1523V41.3141C39.1523 41.2618 39.2047 41.2094 39.3093 41.1048C39.3616 41.0524 39.414 41.0001 39.4663 40.9478C39.5186 40.8431 39.5709 40.7908 39.5709 40.6862C39.5709 40.5815 39.5709 40.4769 39.4663 40.4245C39.414 40.4245 39.3616 40.3722 39.257 40.3199ZM35.4896 35.5059C35.7512 35.4013 36.0651 35.2966 36.3791 35.2966C36.7454 35.2966 37.007 35.4536 37.2686 35.6106C37.3733 35.6629 37.5303 35.7676 37.6349 35.8199C37.7396 35.8722 37.8442 35.9245 38.0012 35.9245V40.8431C37.7919 40.7908 37.5826 40.7908 37.3733 40.7908C37.007 40.7908 36.6407 40.7908 36.2744 40.6862C36.1698 40.6338 36.0128 40.6338 35.9082 40.5815C35.5419 40.4769 35.2279 40.3722 35.0186 40.3199V35.6629C35.1233 35.6629 35.3326 35.6106 35.4896 35.5059ZM32.0361 35.8199C32.193 35.7676 32.2977 35.6629 32.4547 35.6106C32.7163 35.4536 32.9779 35.2966 33.3442 35.2966C33.6582 35.2966 33.9721 35.4013 34.2337 35.5059C34.443 35.5583 34.6 35.6629 34.757 35.6629V40.3199C34.757 40.3199 34.757 40.3199 34.7047 40.3199C34.4954 40.3199 34.1814 40.4245 33.8151 40.5815C33.7105 40.6338 33.5535 40.6338 33.4489 40.6862C33.0826 40.7908 32.7163 40.7908 32.35 40.7908C32.1407 40.7908 31.8791 40.7908 31.7221 40.8431V35.9245C31.8268 35.8722 31.9314 35.8722 32.0361 35.8199ZM39.3093 40.7385C39.3093 40.7908 39.3093 40.8431 39.257 40.8955C39.2047 40.9478 39.2047 41.0001 39.1523 41.0001C39.0477 41.1048 38.8907 41.2094 38.8907 41.3664V41.8897H34.8616H30.8326V41.3664C30.8326 41.1571 30.6756 41.0524 30.5709 41.0001C30.5186 40.9478 30.4663 40.9478 30.4663 40.8955C30.414 40.8431 30.414 40.7908 30.414 40.7385C30.414 40.6862 30.414 40.6338 30.4663 40.5815C30.5186 40.5292 30.5186 40.4769 30.5709 40.4769C30.6756 40.3722 30.8326 40.2676 30.8326 40.1106V37.8083C30.8326 37.599 30.6756 37.4943 30.5709 37.442C30.5186 37.3897 30.4663 37.3897 30.4663 37.3373C30.414 37.2327 30.414 37.1804 30.414 37.128C30.414 37.0757 30.414 37.0234 30.4663 36.9711C30.5186 36.9187 30.5186 36.8664 30.5709 36.8664C30.6756 36.8141 30.8326 36.7094 30.8326 36.5001V35.9769C31.0419 35.9769 31.2512 35.9769 31.4605 35.9769V41.3141H34.3907C34.443 41.5234 34.6523 41.6804 34.8616 41.6804C35.0709 41.6804 35.2803 41.5234 35.3326 41.3141H38.2628V35.9245C38.4721 35.9245 38.6814 35.9245 38.8907 35.9245V36.4478C38.8907 36.6571 39.0477 36.7618 39.1523 36.8141C39.2047 36.8664 39.257 36.8664 39.257 36.9187C39.3093 36.9711 39.3093 37.0234 39.3093 37.0757C39.3093 37.128 39.3093 37.1804 39.257 37.2327C39.2047 37.285 39.2047 37.3373 39.1523 37.3373C39.0477 37.442 38.8907 37.5466 38.8907 37.7036V40.0059C38.8907 40.2152 39.0477 40.3199 39.1523 40.3722C39.2047 40.4245 39.257 40.4245 39.257 40.4769C39.3093 40.6338 39.3093 40.6862 39.3093 40.7385Z" fill="#545454"/>
<path d="M65.626 40.3198C65.5214 40.2675 65.4691 40.2151 65.4691 40.1105V37.8082C65.4691 37.7558 65.5214 37.7035 65.626 37.5989C65.6784 37.5465 65.7307 37.4942 65.783 37.4419C65.8353 37.3372 65.8877 37.2849 65.8877 37.1803C65.8877 37.0756 65.8877 36.971 65.783 36.9186C65.7307 36.8663 65.6784 36.814 65.626 36.7617C65.5214 36.7093 65.4691 36.657 65.4691 36.5524V35.7151H65.2598C64.8412 35.7151 64.3702 35.7151 64.0563 35.5582C63.9516 35.5058 63.847 35.4535 63.69 35.3489C63.4284 35.1919 63.1144 34.9826 62.6435 34.9826C62.2772 34.9826 61.9633 35.1396 61.6493 35.2442C61.44 35.3489 61.283 35.4012 61.126 35.4012H61.0737H61.0214C60.9167 35.4012 60.7074 35.3489 60.4981 35.2442C60.1842 35.1396 59.8702 34.9826 59.504 34.9826C59.033 34.9826 58.7191 35.1919 58.4574 35.3489C58.3528 35.4012 58.2481 35.5058 58.0912 35.5582C57.7772 35.6628 57.3063 35.7151 56.8877 35.7151H56.6784V36.5C56.6784 36.5524 56.626 36.6047 56.5214 36.7093C56.4691 36.7617 56.4167 36.814 56.3644 36.8663C56.3121 36.971 56.2598 37.0233 56.2598 37.1279C56.2598 37.2326 56.2598 37.3372 56.3644 37.3896C56.4167 37.4419 56.4691 37.4942 56.5214 37.5465C56.626 37.5989 56.6784 37.6512 56.6784 37.7558V40.0582C56.6784 40.1105 56.626 40.1628 56.5214 40.2675C56.4691 40.3198 56.4167 40.3721 56.3644 40.4245C56.3121 40.5291 56.2598 40.5814 56.2598 40.6861C56.2598 40.7907 56.2598 40.8954 56.3644 40.9477C56.4167 41 56.4691 41.0524 56.5214 41.1047C56.626 41.157 56.6784 41.2093 56.6784 41.314V42.0989H60.9691H65.2598V41.314C65.2598 41.2617 65.3121 41.2093 65.4167 41.1047C65.4691 41.0524 65.5214 41 65.5737 40.9477C65.626 40.8431 65.6784 40.7907 65.6784 40.6861C65.6784 40.5814 65.6784 40.4768 65.5737 40.4245C65.783 40.4245 65.7307 40.3721 65.626 40.3198ZM61.8586 35.5058C62.1202 35.4012 62.4342 35.2965 62.7481 35.2965C63.1144 35.2965 63.376 35.4535 63.6377 35.6105C63.7423 35.6628 63.8993 35.7675 64.004 35.8198C64.1086 35.8721 64.2133 35.9245 64.3702 35.9245V40.8431C64.1609 40.7907 63.9516 40.7907 63.7423 40.7907C63.376 40.7907 63.0098 40.7907 62.6435 40.6861C62.5388 40.6338 62.3819 40.6338 62.2772 40.5814C61.9109 40.4768 61.597 40.3721 61.3877 40.3198V35.6628C61.4923 35.6628 61.7016 35.6105 61.8586 35.5058ZM58.4051 35.8198C58.5621 35.7675 58.6667 35.6628 58.7714 35.6105C59.033 35.4535 59.2946 35.2965 59.6609 35.2965C59.9749 35.2965 60.2888 35.4012 60.5505 35.5058C60.7598 35.5582 60.9167 35.6628 61.0737 35.6628V40.3198C61.0737 40.3198 61.0737 40.3198 61.0214 40.3198C60.8121 40.3198 60.4981 40.4245 60.1319 40.5814C60.0272 40.6338 59.8702 40.6338 59.7656 40.6861C59.3993 40.7907 59.033 40.7907 58.6667 40.7907C58.4574 40.7907 58.1958 40.7907 58.0388 40.8431V35.9245C58.1958 35.8721 58.3005 35.8721 58.4051 35.8198ZM65.6784 40.7384C65.6784 40.7907 65.6784 40.8431 65.626 40.8954C65.5737 40.9477 65.5737 41 65.5214 41C65.4167 41.1047 65.2598 41.2093 65.2598 41.3663V41.8896H61.2307H57.2016V41.3663C57.2016 41.157 57.0446 41.0524 56.94 41C56.8877 40.9477 56.8353 40.9477 56.8353 40.8954C56.783 40.8431 56.783 40.7907 56.783 40.7384C56.783 40.6861 56.783 40.6338 56.8353 40.5814C56.8877 40.5291 56.8877 40.4768 56.94 40.4768C57.0446 40.3721 57.2016 40.2675 57.2016 40.1105V37.8082C57.2016 37.5989 57.0446 37.4942 56.94 37.4419C56.8877 37.3896 56.8353 37.3896 56.8353 37.3372C56.783 37.2326 56.783 37.1803 56.783 37.1279C56.783 37.0756 56.783 37.0233 56.8353 36.971C56.8877 36.9186 56.8877 36.8663 56.94 36.8663C57.0446 36.7617 57.2016 36.657 57.2016 36.5V35.9768C57.4109 35.9768 57.6202 35.9768 57.8295 35.9768V41.314H60.7598C60.8121 41.5233 61.0214 41.6803 61.2307 41.6803C61.44 41.6803 61.6493 41.5233 61.7016 41.314H64.6319V35.9245C64.8412 35.9245 65.0505 35.9245 65.2598 35.9245V36.4477C65.2598 36.657 65.4167 36.7617 65.5214 36.814C65.5737 36.8663 65.626 36.8663 65.626 36.9186C65.6784 37.0233 65.6784 37.0756 65.6784 37.1279C65.6784 37.1803 65.6784 37.2326 65.626 37.2849C65.5737 37.3372 65.5737 37.3896 65.5214 37.3896C65.4167 37.4942 65.2598 37.5989 65.2598 37.7558V40.0582C65.2598 40.2675 65.4167 40.3721 65.5214 40.4245C65.5737 40.4768 65.626 40.4768 65.626 40.5291C65.6784 40.6338 65.6784 40.6861 65.6784 40.7384Z" fill="#545454"/>
<path d="M67.2968 32.7849H28.7852C28.7852 32.7849 28.7852 51.7268 28.7852 51.9884C28.7852 60.4128 33.4421 66.5349 37.3666 70.1454C41.6572 74.1222 46.4712 76.4768 47.9886 76.8431H48.041H48.0933C49.6107 76.5291 54.4247 74.1222 58.7154 70.1454C62.6398 66.4826 67.3491 60.3605 67.2968 51.9884C67.2968 51.7268 67.2968 32.7849 67.2968 32.7849ZM66.7735 33.3082C66.7735 34.5117 66.7735 39.7442 66.7735 44.3489H29.3084C29.3084 39.7442 29.3084 34.5117 29.3084 33.3082H66.7735ZM36.7386 63.0815C35.4305 61.7733 35.4305 59.6803 36.7386 58.4245C38.0468 57.1163 40.1398 57.1163 41.3956 58.4245C42.7038 59.7326 42.7038 61.8256 41.3956 63.0815C40.0875 64.3373 37.9945 64.3373 36.7386 63.0815ZM58.3491 69.7791C53.9014 73.9128 49.2445 75.9535 48.041 76.2675C46.7852 75.9535 42.1805 73.8605 37.7328 69.7268C37.6282 69.6221 37.5235 69.5175 37.4189 69.4128L48.041 58.1628L58.6631 69.4652C58.5584 69.5698 58.4538 69.6745 58.3491 69.7791ZM44.7445 52.564C44.7445 50.7326 46.2096 49.2675 48.041 49.2675C49.8724 49.2675 51.3375 50.7326 51.3375 52.564C51.3375 54.3954 49.8724 55.8605 48.041 55.8605C46.2096 55.8605 44.7445 54.3431 44.7445 52.564ZM59.3433 63.0815C58.0352 64.3896 55.9421 64.3896 54.6863 63.0815C53.3782 61.7733 53.3782 59.6803 54.6863 58.4245C55.9945 57.1163 58.0875 57.1163 59.3433 58.4245C60.5991 59.6803 60.5991 61.7733 59.3433 63.0815ZM64.6282 61.407L48.041 45.3954L31.4538 61.407C30.1456 58.6861 29.3084 55.5466 29.3084 51.9884C29.3084 51.8838 29.3084 48.6396 29.3084 44.8722H66.7735C66.7735 48.6396 66.7735 51.8838 66.7735 51.9884C66.7735 55.5466 65.9363 58.6861 64.6282 61.407Z" fill="#545454"/>
<path d="M77.0282 76.4244H72.8945V76.1628C73.2608 76.1628 73.5224 76.0582 73.6794 75.8489C73.8364 75.6396 73.8887 75.2733 73.8887 74.75V69.1512C73.8887 68.6279 73.8364 68.2093 73.6794 68.0523C73.5224 67.8954 73.2608 67.7384 72.8945 67.7384V67.4768H76.2957C77.2899 67.4768 78.0224 67.6861 78.598 68.0523C79.1736 68.4709 79.4352 68.9942 79.4352 69.6221C79.4352 70.564 78.8596 71.2442 77.6562 71.6628V71.7151C78.3364 71.8721 78.912 72.1337 79.3306 72.6047C79.7492 73.0756 79.9585 73.5989 79.9585 74.2268C79.9585 74.907 79.6969 75.4302 79.1736 75.7965C78.598 76.2151 77.8655 76.4244 77.0282 76.4244ZM75.0922 67.7907V71.6105H76.0341C76.662 71.6105 77.1852 71.4535 77.6038 71.0872C77.9701 70.7733 78.1794 70.3023 78.1794 69.7268C78.1794 69.0989 77.9701 68.6279 77.6038 68.314C77.2376 68 76.7143 67.7907 76.0341 67.7907H75.0922ZM75.9294 71.9244H75.0922V74.5407C75.0922 75.1163 75.1445 75.5349 75.3015 75.7442C75.4062 75.9535 75.6678 76.0582 76.0341 76.0582H76.7666C77.2899 76.0582 77.7085 75.9012 78.0224 75.5349C78.3364 75.1686 78.4934 74.6977 78.4934 74.1221C78.4934 73.4419 78.2317 72.9186 77.7608 72.5C77.2899 72.0814 76.7143 71.9244 75.9294 71.9244Z" fill="#545454"/>
<path d="M82.6278 70.721V71.9245C83.151 71.5058 83.5173 71.1919 83.8313 70.9826C84.0929 70.8256 84.3545 70.721 84.5638 70.721C84.9301 70.721 85.244 70.8779 85.558 71.1396L85.1394 72.1338C84.5638 71.8198 84.0929 71.6628 83.8313 71.6628C83.5173 71.6628 83.0987 71.8721 82.6801 72.3431V75.3779C82.6801 75.6919 82.7324 75.9012 82.8894 76.0058C82.994 76.1105 83.2557 76.1628 83.622 76.1628V76.4245H80.6917V76.1628C81.058 76.1628 81.3196 76.1105 81.4766 75.9535C81.6336 75.7965 81.6336 75.5349 81.6336 75.064V72.0291C81.6336 71.6628 81.5813 71.4012 81.4243 71.2965C81.3196 71.1919 80.9534 71.1396 80.4824 71.1396V70.8779L82.4185 70.721H82.6278Z" fill="#545454"/>
<path d="M87.7553 76.5814C87.3367 76.5814 86.9704 76.4245 86.6565 76.1628C86.3425 75.9012 86.1855 75.5349 86.1855 75.1163C86.1855 74.75 86.3425 74.4361 86.6042 74.1745C86.8658 73.9128 87.389 73.7035 88.2262 73.4419C88.7495 73.2849 89.0635 73.1803 89.2728 73.0756V72.657C89.2728 72.2384 89.1681 71.9245 88.9588 71.6628C88.7495 71.4012 88.4356 71.2965 88.0693 71.2965C87.703 71.2965 87.4414 71.4012 87.1797 71.6105C86.9181 71.8198 86.7088 72.1338 86.6042 72.5L86.3425 72.4477C86.4472 71.9245 86.7088 71.5058 87.0751 71.1919C87.4414 70.8779 87.9123 70.721 88.3832 70.721C88.9588 70.721 89.4821 70.8779 89.8483 71.2442C90.2146 71.6105 90.4239 72.0814 90.4239 72.7617V75.1163C90.4239 75.4303 90.4239 75.6919 90.4762 75.7965C90.5286 75.9012 90.5809 75.9535 90.7379 75.9535C90.8425 75.9535 90.8949 75.9012 90.9472 75.8489C90.9995 75.7965 91.0518 75.6396 91.1042 75.4303H91.3658C91.3658 75.7965 91.2088 76.0582 91.0518 76.2675C90.8949 76.4768 90.6332 76.5814 90.3193 76.5814C89.8483 76.5814 89.5344 76.3198 89.3774 75.7965C89.1158 76.1105 88.8542 76.3198 88.6449 76.4245C88.4355 76.5291 88.0169 76.5814 87.7553 76.5814ZM89.2204 75.2733V73.3896C89.0635 73.4419 88.8542 73.5465 88.5402 73.6512C87.9646 73.8605 87.6507 74.0175 87.4937 74.2268C87.3367 74.4361 87.2844 74.6454 87.2844 74.9593C87.2844 75.221 87.389 75.4826 87.546 75.6919C87.703 75.9012 87.9123 76.0058 88.1216 76.0058C88.3309 76.0058 88.5402 75.9535 88.8018 75.7965C88.9588 75.6396 89.1158 75.4826 89.2204 75.2733Z" fill="#545454"/>
<path d="M93.5622 70.721V71.8198C94.1901 71.0872 94.8703 70.721 95.5506 70.721C96.0738 70.721 96.5447 70.8779 96.911 71.2442C97.2773 71.6105 97.4343 72.0814 97.4343 72.7093V75.221C97.4343 75.5872 97.4866 75.8489 97.6436 75.9535C97.7482 76.0582 98.0099 76.1628 98.3761 76.1628V76.4245H95.4459V76.1628C95.8122 76.1628 96.0738 76.1105 96.1785 76.0058C96.3354 75.9012 96.3878 75.7442 96.3878 75.4826V72.6047C96.3878 72.2384 96.2831 71.9245 96.0215 71.6628C95.8122 71.4535 95.4982 71.2965 95.132 71.2965C94.6087 71.2965 94.0854 71.6628 93.5622 72.3954V75.1163C93.5622 75.5872 93.6145 75.8489 93.7192 76.0058C93.8238 76.1105 94.0854 76.2151 94.4517 76.2151V76.4768H91.5215V76.2151C91.9401 76.2151 92.2017 76.1628 92.3064 76.0058C92.411 75.8489 92.4633 75.5872 92.4633 75.1686V72.0291C92.4633 71.7151 92.411 71.4535 92.3064 71.3489C92.2017 71.2442 91.9401 71.1919 91.5738 71.1919V70.9303L93.3006 70.7733H93.5622V70.721Z" fill="#545454"/>
<path d="M104.291 66.5872H104.552V75.3256C104.552 75.6395 104.605 75.8488 104.762 75.9535C104.919 76.0581 105.128 76.1105 105.494 76.1105V76.3721H102.25C101.256 76.3721 100.471 76.1105 99.8954 75.5349C99.3198 75.0116 99.0059 74.2791 99.0059 73.4942C99.0059 72.7093 99.2675 72.0291 99.7907 71.5058C100.314 70.9826 100.89 70.6686 101.622 70.6686C102.198 70.6686 102.826 70.8779 103.506 71.3488V67.9477C103.506 67.5814 103.454 67.3198 103.349 67.2151C103.244 67.0581 103.035 67.0058 102.773 67.0058H102.459V66.7442L104.291 66.5872ZM103.506 75.3256V71.9767C103.297 71.6628 103.035 71.4535 102.773 71.2965C102.512 71.1395 102.198 71.0349 101.936 71.0349C101.413 71.0349 101.047 71.2442 100.733 71.6628C100.419 72.0814 100.262 72.6046 100.262 73.2849C100.262 74.1221 100.471 74.8546 100.89 75.3779C101.308 75.9012 101.884 76.1628 102.669 76.1628C102.983 76.1628 103.192 76.1105 103.349 75.9535C103.506 75.7965 103.506 75.5872 103.506 75.3256Z" fill="#545454"/>
<path d="M114.545 67.3198H114.807V69.4128H114.545C114.493 68.8372 114.284 68.3663 113.917 68.0523C113.551 67.7384 113.133 67.5814 112.557 67.5814C112.086 67.5814 111.667 67.686 111.406 67.9477C111.092 68.2093 110.987 68.5233 110.987 68.9419C110.987 69.3081 111.092 69.6744 111.353 69.9884C111.615 70.3023 112.138 70.7209 112.923 71.1919C113.865 71.7674 114.493 72.2384 114.807 72.657C115.121 73.0756 115.278 73.5465 115.278 74.1221C115.278 74.8023 115.016 75.4302 114.545 75.9012C114.074 76.3721 113.446 76.6337 112.766 76.6337C112.348 76.6337 111.824 76.5291 111.196 76.3198C110.935 76.2151 110.778 76.1628 110.726 76.1628C110.569 76.1628 110.464 76.2674 110.359 76.5291H110.098V74.1221H110.359C110.359 74.8023 110.569 75.3256 110.987 75.7442C111.406 76.1628 111.929 76.3721 112.505 76.3721C113.028 76.3721 113.499 76.2151 113.813 75.9535C114.127 75.6395 114.284 75.2733 114.284 74.8023C114.284 74.436 114.127 74.0698 113.865 73.7558C113.603 73.4419 113.028 73.0233 112.191 72.5C111.51 72.0814 111.04 71.7151 110.778 71.4535C110.569 71.1919 110.359 70.9302 110.255 70.6163C110.15 70.3023 110.098 69.9884 110.098 69.6221C110.098 68.9419 110.307 68.3663 110.778 67.9477C111.249 67.5291 111.824 67.3198 112.557 67.3198C112.976 67.3198 113.394 67.4244 113.865 67.5814C114.074 67.6337 114.231 67.686 114.336 67.686C114.388 67.686 114.441 67.686 114.493 67.6337C114.493 67.4767 114.545 67.4244 114.545 67.3198Z" fill="#545454"/>
<path d="M117.841 68.9942H118.103V70.878H120.039V71.2442H118.103V74.8024C118.103 75.1687 118.207 75.4826 118.364 75.6396C118.521 75.8489 118.783 75.9535 119.097 75.9535C119.463 75.9535 119.83 75.7966 120.143 75.4303L120.3 75.6396C119.83 76.2675 119.254 76.5814 118.626 76.5814C118.155 76.5814 117.789 76.4245 117.475 76.1105C117.161 75.7966 117.056 75.4303 117.056 74.9593V71.2442H116.01V70.9826C116.795 70.6163 117.37 69.9361 117.841 68.9942Z" fill="#545454"/>
<path d="M122.394 76.5814C121.975 76.5814 121.609 76.4245 121.295 76.1628C120.981 75.9012 120.824 75.5349 120.824 75.1163C120.824 74.75 120.981 74.4361 121.243 74.1745C121.504 73.9128 122.028 73.7035 122.865 73.4419C123.388 73.2849 123.702 73.1803 123.911 73.0756V72.657C123.911 72.2384 123.807 71.9245 123.597 71.6628C123.388 71.4012 123.074 71.2965 122.708 71.2965C122.342 71.2965 122.08 71.4012 121.818 71.6105C121.557 71.8198 121.347 72.1338 121.243 72.5L120.981 72.4477C121.086 71.9245 121.347 71.5058 121.714 71.1919C122.08 70.8779 122.551 70.721 123.022 70.721C123.597 70.721 124.121 70.8779 124.487 71.2442C124.853 71.6105 125.063 72.0814 125.063 72.7617V75.1163C125.063 75.4303 125.063 75.6919 125.115 75.7965C125.167 75.9012 125.22 75.9535 125.377 75.9535C125.481 75.9535 125.534 75.9012 125.586 75.8489C125.638 75.7965 125.691 75.6396 125.743 75.4303H126.004C126.004 75.7965 125.847 76.0582 125.69 76.2675C125.534 76.4768 125.272 76.5814 124.958 76.5814C124.487 76.5814 124.173 76.3198 124.016 75.7965C123.754 76.1105 123.493 76.3198 123.284 76.4245C123.074 76.5291 122.656 76.5814 122.394 76.5814ZM123.859 75.2733V73.3896C123.702 73.4419 123.493 73.5465 123.179 73.6512C122.603 73.8605 122.289 74.0175 122.132 74.2268C121.975 74.4361 121.923 74.6454 121.923 74.9593C121.923 75.221 122.028 75.4826 122.185 75.6919C122.342 75.9012 122.551 76.0058 122.76 76.0058C122.97 76.0058 123.179 75.9535 123.44 75.7965C123.597 75.6396 123.754 75.4826 123.859 75.2733Z" fill="#545454"/>
<path d="M128.202 70.721V71.8198C128.83 71.0872 129.511 70.721 130.191 70.721C130.714 70.721 131.185 70.8779 131.551 71.2442C131.918 71.6105 132.074 72.0814 132.074 72.7093V75.221C132.074 75.5872 132.127 75.8489 132.284 75.9535C132.388 76.0582 132.65 76.1628 133.016 76.1628V76.4245H130.034V76.1628C130.4 76.1628 130.662 76.1105 130.766 76.0058C130.923 75.9012 130.976 75.7442 130.976 75.4826V72.6047C130.976 72.2384 130.871 71.9245 130.609 71.6628C130.4 71.4535 130.086 71.2965 129.72 71.2965C129.197 71.2965 128.673 71.6628 128.15 72.3954V75.1163C128.15 75.5872 128.202 75.8489 128.307 76.0058C128.412 76.1105 128.673 76.2151 129.04 76.2151V76.4768H126.109V76.2151C126.528 76.2151 126.79 76.1628 126.894 76.0058C126.999 75.8489 127.051 75.5872 127.051 75.1686V72.0291C127.051 71.7151 126.999 71.4535 126.894 71.3489C126.79 71.2442 126.528 71.1919 126.162 71.1919V70.9303L127.941 70.721H128.202Z" fill="#545454"/>
<path d="M138.931 66.5872H139.193V75.3256C139.193 75.6395 139.245 75.8488 139.402 75.9535C139.559 76.0581 139.769 76.1105 140.135 76.1105V76.3721H136.891C135.896 76.3721 135.112 76.1105 134.536 75.5349C133.96 75.0116 133.646 74.2791 133.646 73.4942C133.646 72.7093 133.908 72.0291 134.431 71.5058C134.955 70.9826 135.53 70.6686 136.263 70.6686C136.838 70.6686 137.466 70.8779 138.146 71.3488V67.9477C138.146 67.5814 138.094 67.3198 137.99 67.2151C137.885 67.0581 137.676 67.0058 137.414 67.0058H137.1V66.7442L138.931 66.5872ZM138.146 75.3256V71.9767C137.937 71.6628 137.676 71.4535 137.414 71.2965C137.152 71.1395 136.838 71.0349 136.577 71.0349C136.053 71.0349 135.687 71.2442 135.373 71.6628C135.059 72.0814 134.902 72.6046 134.902 73.2849C134.902 74.1221 135.112 74.8546 135.53 75.3779C135.949 75.9012 136.524 76.1628 137.309 76.1628C137.623 76.1628 137.833 76.1105 137.99 75.9535C138.146 75.7965 138.146 75.5872 138.146 75.3256Z" fill="#545454"/>
<path d="M142.435 76.5814C142.016 76.5814 141.65 76.4245 141.336 76.1628C141.022 75.9012 140.865 75.5349 140.865 75.1163C140.865 74.75 141.022 74.4361 141.284 74.1745C141.545 73.9128 142.069 73.7035 142.906 73.4419C143.429 73.2849 143.743 73.1803 143.952 73.0756V72.657C143.952 72.2384 143.848 71.9245 143.638 71.6628C143.429 71.4012 143.115 71.2965 142.749 71.2965C142.383 71.2965 142.121 71.4012 141.859 71.6105C141.598 71.8198 141.388 72.1338 141.284 72.5L141.022 72.4477C141.127 71.9245 141.388 71.5058 141.755 71.1919C142.121 70.8779 142.592 70.721 143.063 70.721C143.638 70.721 144.162 70.8779 144.528 71.2442C144.894 71.6105 145.104 72.0814 145.104 72.7617V75.1163C145.104 75.4303 145.104 75.6919 145.156 75.7965C145.208 75.9012 145.261 75.9535 145.418 75.9535C145.522 75.9535 145.575 75.9012 145.627 75.8489C145.679 75.7965 145.732 75.6396 145.784 75.4303H146.045C146.045 75.7965 145.888 76.0582 145.732 76.2675C145.575 76.4768 145.313 76.5814 144.999 76.5814C144.528 76.5814 144.214 76.3198 144.057 75.7965C143.795 76.1105 143.534 76.3198 143.325 76.4245C143.115 76.5291 142.697 76.5814 142.435 76.5814ZM143.9 75.2733V73.3896C143.743 73.4419 143.534 73.5465 143.22 73.6512C142.644 73.8605 142.33 74.0175 142.173 74.2268C142.016 74.4361 141.964 74.6454 141.964 74.9593C141.964 75.221 142.069 75.4826 142.226 75.6919C142.383 75.9012 142.592 76.0058 142.801 76.0058C143.011 76.0058 143.22 75.9535 143.482 75.7965C143.638 75.6396 143.795 75.4826 143.9 75.2733Z" fill="#545454"/>
<path d="M148.401 70.721V71.9245C148.924 71.5058 149.291 71.1919 149.605 70.9826C149.866 70.8256 150.128 70.721 150.337 70.721C150.704 70.721 151.017 70.8779 151.331 71.1396L150.913 72.1338C150.337 71.8198 149.866 71.6628 149.605 71.6628C149.291 71.6628 148.872 71.8721 148.454 72.3431V75.3779C148.454 75.6919 148.506 75.9012 148.663 76.0058C148.767 76.1105 149.029 76.1628 149.395 76.1628V76.4245H146.465V76.1628C146.831 76.1628 147.093 76.1105 147.25 75.9535C147.407 75.7965 147.407 75.5349 147.407 75.064V72.0291C147.407 71.6628 147.355 71.4012 147.198 71.2965C147.093 71.1919 146.727 71.1396 146.256 71.1396V70.8779L148.192 70.721H148.401Z" fill="#545454"/>
<path d="M157.191 66.5872H157.453V75.3256C157.453 75.6395 157.505 75.8488 157.662 75.9535C157.819 76.0581 158.028 76.1105 158.395 76.1105V76.3721H155.15C154.156 76.3721 153.371 76.1105 152.796 75.5349C152.22 75.0116 151.906 74.2791 151.906 73.4942C151.906 72.7093 152.168 72.0291 152.691 71.5058C153.214 70.9826 153.79 70.6686 154.523 70.6686C155.098 70.6686 155.726 70.8779 156.406 71.3488V67.9477C156.406 67.5814 156.354 67.3198 156.249 67.2151C156.145 67.0581 155.935 67.0058 155.674 67.0058H155.36V66.7442L157.191 66.5872ZM156.406 75.3256V71.9767C156.197 71.6628 155.935 71.4535 155.674 71.2965C155.412 71.1395 155.098 71.0349 154.836 71.0349C154.313 71.0349 153.947 71.2442 153.633 71.6628C153.319 72.0814 153.162 72.6046 153.162 73.2849C153.162 74.1221 153.371 74.8546 153.79 75.3779C154.209 75.9012 154.784 76.1628 155.569 76.1628C155.883 76.1628 156.092 76.1105 156.249 75.9535C156.406 75.7965 156.406 75.5872 156.406 75.3256Z" fill="#545454"/>
<path d="M162.737 70.721V72.4477H162.423C162.371 72.0291 162.214 71.6628 161.952 71.4535C161.69 71.1919 161.377 71.0872 161.01 71.0872C160.749 71.0872 160.539 71.1396 160.33 71.2965C160.173 71.4535 160.068 71.6105 160.068 71.8721C160.068 72.0814 160.121 72.2907 160.278 72.4477C160.435 72.6047 160.749 72.814 161.272 73.0756C161.952 73.3896 162.371 73.6512 162.58 73.9651C162.789 74.2268 162.894 74.5931 162.894 74.9593C162.894 75.4303 162.737 75.8489 162.371 76.1628C162.004 76.4768 161.638 76.6861 161.115 76.6861C160.853 76.6861 160.539 76.5814 160.121 76.4245C159.911 76.3198 159.754 76.2675 159.702 76.2675C159.597 76.2675 159.545 76.3198 159.44 76.3721C159.388 76.4245 159.336 76.5291 159.336 76.6338H159.074V74.75H159.336C159.44 75.221 159.65 75.6396 159.964 75.9535C160.278 76.2675 160.696 76.3721 161.115 76.3721C161.377 76.3721 161.638 76.2675 161.795 76.1105C161.952 75.9535 162.057 75.6919 162.057 75.4303C162.057 75.1686 161.952 74.9593 161.795 74.75C161.638 74.5407 161.272 74.3314 160.696 74.0698C160.068 73.8082 159.65 73.5465 159.44 73.2849C159.231 73.0233 159.127 72.7617 159.127 72.3954C159.127 71.9768 159.284 71.6105 159.65 71.2965C159.964 70.9826 160.382 70.8256 160.853 70.8256C161.063 70.8256 161.324 70.8779 161.534 70.9826C161.69 71.0349 161.847 71.0872 161.952 71.0872C162.109 71.0872 162.214 70.9826 162.266 70.8256H162.737V70.721Z" fill="#545454"/>
</g>
<defs>
<clipPath id="clip0_24304_22016">
<rect width="135" height="45" fill="white" transform="translate(28 32)"/>
</clipPath>
</defs>
</svg>
