<svg width="192" height="108" viewBox="0 0 192 108" fill="none" xmlns="http://www.w3.org/2000/svg">
<g clip-path="url(#clip0_18397_43975)">
<path d="M66.8431 59.5342L66.8276 59.485L76.6307 50.5104V46.1863H60.9033V50.5104H70.2973L70.3128 50.5519L60.6055 59.5342V63.8583H76.7886V59.5342H66.8431Z" fill="#545454"/>
<path d="M86.4438 45.7747C84.6298 45.7747 83.1513 46.0482 82.0085 46.5955C80.944 47.0723 80.0473 47.8581 79.4348 48.8507C78.8488 49.8499 78.4808 50.9618 78.355 52.1133L83.1271 52.7839C83.2997 51.7671 83.645 51.0465 84.1629 50.6218C84.7515 50.1777 85.477 49.9533 86.2136 49.9875C87.1822 49.9875 87.8847 50.2463 88.3211 50.7642C88.7539 51.2821 88.9739 51.9993 88.9739 52.9444V53.4157H84.3855C82.05 53.4157 80.3721 53.9335 79.3519 54.9693C78.3317 56.005 77.8225 57.3722 77.8242 59.0707C77.8242 60.8107 78.3334 62.1054 79.3519 62.9547C80.3704 63.804 81.6512 64.226 83.1944 64.2208C85.1088 64.2208 86.5815 63.5623 87.6118 62.2452C88.2206 61.4358 88.6552 60.5093 88.8883 59.5239H89.0617L89.7195 63.848H94.0435V52.8978C94.0435 50.6347 93.4473 48.8818 92.2545 47.6389C91.0617 46.3961 89.1246 45.7747 86.4438 45.7747ZM87.9563 59.2727C87.27 59.8449 86.3714 60.1297 85.2529 60.1297C84.3311 60.1297 83.6907 59.9683 83.3317 59.6455C83.1567 59.4928 83.0176 59.3034 82.9241 59.0909C82.8305 58.8783 82.7849 58.6478 82.7905 58.4156C82.7803 58.1967 82.8148 57.9779 82.8918 57.7727C82.9688 57.5675 83.0867 57.3801 83.2385 57.222C83.4026 57.068 83.5962 56.949 83.8076 56.872C84.019 56.795 84.2438 56.7617 84.4684 56.774H88.9816V57.0718C88.9906 57.4927 88.9028 57.91 88.7254 58.2916C88.5475 58.6733 88.2845 59.0089 87.9563 59.2727Z" fill="#545454"/>
<path d="M120.191 46.1863H115.082V63.8609H120.191V46.1863Z" fill="#545454"/>
<path d="M150.352 46.1863C148.909 46.1863 147.772 46.6955 146.94 47.714C146.342 48.4459 145.888 49.5273 145.578 50.9584H145.428L144.759 46.1863H140.396V63.8583H145.505V54.7957C145.505 53.653 145.773 52.7769 146.308 52.1676C146.843 51.5582 147.83 51.2536 149.27 51.2536H151.209V46.1863H150.352Z" fill="#545454"/>
<path d="M135.327 46.7638C134.134 46.0543 132.63 45.7004 130.814 45.7022C127.955 45.7022 125.718 46.5161 124.102 48.1439C122.486 49.7717 121.679 52.0158 121.679 54.8761C121.638 56.6054 122.015 58.319 122.779 59.8708C123.479 61.2537 124.568 62.4015 125.912 63.1722C127.265 63.9542 128.875 64.346 130.742 64.3477C132.355 64.3477 133.703 64.0992 134.786 63.602C135.803 63.1556 136.689 62.4558 137.36 61.5694C137.998 60.6993 138.472 59.7201 138.758 58.6797L134.356 57.4472C134.171 58.1237 133.814 58.7409 133.32 59.239C132.823 59.7362 131.99 59.9848 130.822 59.9848C129.432 59.9848 128.396 59.5869 127.714 58.7911C127.22 58.2163 126.909 57.3954 126.772 56.3313H138.825C138.874 55.8341 138.9 55.4172 138.9 55.0806V53.9802C138.929 52.5018 138.624 51.036 138.007 49.6923C137.429 48.4682 136.495 47.4474 135.327 46.7638ZM130.666 49.915C132.738 49.915 133.912 50.9343 134.19 52.9729H126.862C126.979 52.2927 127.261 51.6516 127.683 51.1061C128.355 50.3103 129.349 49.9132 130.666 49.915Z" fill="#545454"/>
<path d="M117.691 39.0632C117.307 39.0501 116.924 39.1144 116.565 39.2523C116.206 39.3902 115.879 39.5989 115.602 39.8659C115.329 40.1354 115.115 40.4588 114.974 40.8154C114.833 41.1719 114.767 41.554 114.781 41.9373C114.768 42.3231 114.833 42.7076 114.975 43.0668C115.116 43.426 115.33 43.7522 115.603 44.025C115.876 44.2978 116.203 44.5115 116.562 44.6526C116.921 44.7937 117.306 44.8592 117.691 44.8451C118.075 44.8596 118.457 44.7941 118.814 44.6528C119.17 44.5115 119.494 44.2974 119.763 44.0243C120.03 43.7483 120.239 43.4212 120.376 43.0626C120.514 42.7039 120.577 42.3211 120.563 41.9373C120.581 41.5557 120.519 41.1747 120.381 40.8185C120.243 40.4622 120.032 40.1387 119.762 39.8685C119.492 39.5982 119.169 39.3873 118.813 39.2491C118.457 39.1109 118.076 39.0484 117.694 39.0658L117.691 39.0632Z" fill="#545454"/>
<path d="M107.138 45.7021C105.398 45.7021 104 46.2485 102.943 47.3412C102.161 48.1508 101.587 49.3591 101.221 50.9662H101.058L100.39 46.1941H96.0273V68.9386H101.136V59.5705H101.322C101.478 60.1951 101.697 60.8024 101.975 61.383C102.407 62.3288 103.116 63.1214 104.008 63.6564C104.932 64.161 105.974 64.412 107.027 64.384C109.166 64.384 110.794 63.5511 111.912 61.8853C113.031 60.2195 113.591 57.8952 113.591 54.9123C113.591 52.0313 113.049 49.776 111.967 48.1465C110.885 46.5169 109.275 45.7021 107.138 45.7021ZM107.656 58.5089C107.06 59.3719 106.128 59.8035 104.859 59.8035C104.336 59.8277 103.815 59.7268 103.339 59.5093C102.862 59.2918 102.444 58.964 102.12 58.5529C101.459 57.7226 101.129 56.5859 101.131 55.1428V54.8061C101.131 53.3406 101.46 52.2186 102.12 51.44C102.779 50.6615 103.693 50.2766 104.859 50.2852C106.151 50.2852 107.089 50.6952 107.674 51.5151C108.259 52.3351 108.552 53.4787 108.552 54.946C108.555 56.4633 108.258 57.6509 107.661 58.5089H107.656Z" fill="#545454"/>
<path d="M58.6297 59.5342H40.9551V63.8635H58.6297V59.5342Z" fill="#545454"/>
</g>
<defs>
<clipPath id="clip0_18397_43975">
<rect width="110.455" height="30" fill="white" transform="translate(40.9551 39)"/>
</clipPath>
</defs>
</svg>
