<svg width="107" height="53" viewBox="0 0 107 53" fill="none" xmlns="http://www.w3.org/2000/svg">
<g clip-path="url(#clip0_791719_15552)">
<path d="M0.980469 18.3252H4.09485V30.1952H9.57617V32.9344H0.980469V18.3252Z" fill="#1C1C1C"/>
<path d="M20.9524 27.705V18.3252H24.0668V27.7257C24.0668 31.0253 21.4092 33.1627 18.4194 33.1627C15.4088 33.1627 12.7305 31.046 12.7305 27.7257V18.3252H15.8864V27.7257C15.8864 29.2406 17.0906 30.2367 18.4194 30.2367C19.7274 30.216 20.9524 29.2199 20.9524 27.705Z" fill="#1C1C1C"/>
<path d="M41.2808 29.9464C40.0143 31.8763 37.7719 33.1422 35.1351 33.1422C30.9618 33.1422 27.7852 29.7804 27.7852 25.6508C27.7852 21.5005 30.9411 18.1387 35.1351 18.1387C37.7512 18.1387 39.952 19.363 41.2185 21.2307L38.6855 22.9738C37.8965 21.8325 36.63 21.0647 35.1143 21.0647C32.6644 21.0647 30.8995 23.0983 30.8995 25.6508C30.8995 28.1825 32.6851 30.2162 35.1143 30.2162C36.6508 30.2162 37.9796 29.3861 38.7685 28.2033L41.2808 29.9464Z" fill="#1C1C1C"/>
<path d="M47.8436 18.3252V32.9344H44.75V18.3252H47.8436Z" fill="#1C1C1C"/>
<path d="M52.5547 32.9344V18.3252H58.2851C62.4792 18.3252 64.8876 21.5002 64.8876 25.6713C64.8876 29.8009 62.4999 32.9552 58.2851 32.9552H52.5547V32.9344ZM55.6483 30.1122H58.2851C60.6106 30.1122 61.794 28.0578 61.794 25.6506C61.794 23.2434 60.6313 21.1267 58.2851 21.1267H55.6483V30.1122Z" fill="#1C1C1C"/>
<path d="M101.116 16.6445V11H74.7266V37.3755H80.374V38.9111V43.02H106.763V16.6445H101.116ZM80.374 35.9436H76.1799V12.4526H99.6624V16.6445H80.374V35.9436ZM99.6624 18.0971V35.9436H81.8066V18.0971H99.6624ZM105.31 41.5673H81.8066V38.9111V37.3755H101.095V18.0971H105.289V41.5673H105.31Z" fill="#1C1C1C"/>
</g>
<defs>
<clipPath id="clip0_791719_15552">
<rect width="106" height="53" fill="white" transform="translate(0.980469)"/>
</clipPath>
</defs>
</svg>
