<svg width="111" height="53" viewBox="0 0 111 53" fill="none" xmlns="http://www.w3.org/2000/svg">
<g clip-path="url(#clip0_791719_15527)">
<g clip-path="url(#clip1_791719_15527)">
<path d="M26.5345 32.5344L26.519 32.4852L36.3221 23.5107V19.1865H20.5947V23.5107H29.9887L30.0042 23.5521L20.2969 32.5344V36.8585H36.48V32.5344H26.5345Z" fill="#1C1C1C"/>
<path d="M46.1392 18.7744C44.3251 18.7744 42.8466 19.048 41.7039 19.5952C40.6393 20.0721 39.7427 20.8578 39.1301 21.8505C38.5441 22.8496 38.1761 23.9615 38.0504 25.113L42.8224 25.7837C42.995 24.7669 43.3403 24.0462 43.8582 23.6216C44.4468 23.1774 45.1723 22.953 45.9089 22.9872C46.8775 22.9872 47.58 23.2461 48.0164 23.764C48.4492 24.2818 48.6692 24.9991 48.6692 25.9442V26.4154H44.0809C41.7453 26.4154 40.0674 26.9333 39.0472 27.969C38.027 29.0047 37.5178 30.3719 37.5195 32.0705C37.5195 33.8105 38.0288 35.1052 39.0472 35.9544C40.0657 36.8037 41.3466 37.2258 42.8898 37.2206C44.8041 37.2206 46.2768 36.562 47.3071 35.245C47.9159 34.4356 48.3505 33.5091 48.5836 32.5236H48.757L49.4148 36.8477H53.7388V25.8976C53.7388 23.6345 53.1426 21.8816 51.9498 20.6387C50.757 19.3958 48.8199 18.7744 46.1392 18.7744ZM47.6516 32.2724C46.9653 32.8446 46.0667 33.1295 44.9482 33.1295C44.0264 33.1295 43.386 32.9681 43.027 32.6453C42.852 32.4926 42.7129 32.3032 42.6194 32.0907C42.5258 31.8781 42.4803 31.6475 42.4858 31.4154C42.4756 31.1964 42.5101 30.9777 42.5871 30.7725C42.6641 30.5673 42.7821 30.3799 42.9338 30.2217C43.0979 30.0678 43.2915 29.9488 43.5029 29.8718C43.7143 29.7948 43.9391 29.7614 44.1637 29.7737H48.6769V30.0715C48.6859 30.4924 48.5981 30.9098 48.4207 31.2914C48.2428 31.673 47.9798 32.0087 47.6516 32.2724Z" fill="#1C1C1C"/>
<path d="M79.882 19.1865H74.7734V36.8612H79.882V19.1865Z" fill="#1C1C1C"/>
<path d="M110.046 19.1865C108.603 19.1865 107.465 19.6957 106.633 20.7142C106.036 21.4461 105.582 22.5276 105.271 23.9586H105.121L104.453 19.1865H100.09V36.8585H105.199V27.796C105.199 26.6532 105.466 25.7772 106.001 25.1678C106.536 24.5585 107.524 24.2538 108.963 24.2538H110.903V19.1865H110.046Z" fill="#1C1C1C"/>
<path d="M95.0182 19.7638C93.8258 19.0543 92.3211 18.7004 90.5054 18.7022C87.6467 18.7022 85.4095 19.5161 83.7939 21.1439C82.1778 22.7717 81.3702 25.0158 81.3702 27.8761C81.329 29.6054 81.7066 31.319 82.4707 32.8708C83.1701 34.2537 84.2592 35.4015 85.6037 36.1722C86.9568 36.9542 88.5665 37.346 90.4329 37.3477C92.0467 37.3477 93.3948 37.0992 94.4772 36.602C95.4948 36.1556 96.3807 35.4558 97.0512 34.5694C97.689 33.6993 98.1629 32.7201 98.449 31.6797L94.0476 30.4472C93.862 31.1237 93.5053 31.7409 93.0119 32.239C92.5144 32.7362 91.6814 32.9848 90.5131 32.9848C89.1233 32.9848 88.0876 32.5869 87.4058 31.7911C86.9111 31.2163 86.6005 30.3954 86.4634 29.3313H98.5165C98.5658 28.8341 98.5916 28.4172 98.5916 28.0806V26.9802C98.6206 25.5018 98.3155 24.036 97.6985 22.6923C97.1209 21.4682 96.1865 20.4474 95.0182 19.7638ZM90.3578 22.915C92.4293 22.915 93.6035 23.9343 93.8815 25.9729H86.5539C86.6702 25.2927 86.9523 24.6516 87.3746 24.1061C88.0464 23.3103 89.0405 22.9132 90.3578 22.915Z" fill="#1C1C1C"/>
<path d="M77.3848 12.0632C77.0005 12.0501 76.6175 12.1144 76.2585 12.2523C75.8996 12.3902 75.5723 12.5989 75.2952 12.8659C75.0227 13.1354 74.8086 13.4588 74.6674 13.8154C74.5261 14.1719 74.4605 14.554 74.4745 14.9373C74.4609 15.3231 74.5266 15.7076 74.6683 16.0668C74.8095 16.426 75.0236 16.7522 75.2966 17.025C75.5695 17.2978 75.8959 17.5115 76.2554 17.6526C76.6148 17.7937 76.9991 17.8592 77.3848 17.8451C77.7682 17.8596 78.1503 17.7941 78.507 17.6528C78.8637 17.5115 79.1869 17.2974 79.4563 17.0243C79.7238 16.7483 79.9321 16.4212 80.0697 16.0626C80.2073 15.7039 80.2707 15.3211 80.2566 14.9373C80.2743 14.5557 80.2123 14.1747 80.0742 13.8185C79.9361 13.4622 79.7256 13.1387 79.4558 12.8685C79.1856 12.5982 78.8624 12.3873 78.5061 12.2491C78.1503 12.1109 77.7691 12.0484 77.3875 12.0658L77.3848 12.0632Z" fill="#1C1C1C"/>
<path d="M66.8294 18.7021C65.0893 18.7021 63.6909 19.2485 62.6348 20.3412C61.8526 21.1508 61.2786 22.3591 60.9128 23.9662H60.7499L60.0817 19.1941H55.7188V41.9386H60.8273V32.5705H61.0138C61.1695 33.1951 61.3881 33.8024 61.6661 34.383C62.0984 35.3288 62.8073 36.1214 63.6991 36.6564C64.6235 37.161 65.6651 37.412 66.718 37.384C68.857 37.384 70.4853 36.5511 71.6038 34.8853C72.7224 33.2195 73.2819 30.8952 73.2819 27.9123C73.2819 25.0313 72.7405 22.776 71.6586 21.1465C70.5762 19.5169 68.9665 18.7021 66.8294 18.7021ZM67.3473 31.5089C66.7515 32.3719 65.8195 32.8035 64.5506 32.8035C64.0277 32.8277 63.5062 32.7268 63.03 32.5093C62.5534 32.2918 62.1355 31.964 61.8114 31.5529C61.15 30.7226 60.8205 29.5859 60.8223 28.1428V27.8061C60.8223 26.3406 61.1518 25.2186 61.8114 24.44C62.4705 23.6615 63.384 23.2766 64.5506 23.2852C65.8421 23.2852 66.78 23.6952 67.3654 24.5151C67.9507 25.3351 68.2431 26.4787 68.2431 27.946C68.2467 29.4633 67.9498 30.6509 67.3522 31.5089H67.3473Z" fill="#1C1C1C"/>
<path d="M18.323 32.5342H0.648438V36.8635H18.323V32.5342Z" fill="#1C1C1C"/>
</g>
</g>
<defs>
<clipPath id="clip0_791719_15527">
<rect width="110" height="53" fill="white" transform="translate(0.648438)"/>
</clipPath>
<clipPath id="clip1_791719_15527">
<rect width="110.455" height="30" fill="white" transform="translate(0.648438 12)"/>
</clipPath>
</defs>
</svg>
