<svg width="342" height="53" viewBox="0 0 342 53" fill="none" xmlns="http://www.w3.org/2000/svg">
<g clip-path="url(#clip0_791719_15496)">
<g clip-path="url(#clip1_791719_15496)">
<path d="M56.7394 28.6949L61.1404 24.7594C61.3159 24.543 61.4239 24.2861 61.4239 24.0021C61.4239 23.6099 61.2484 23.2042 60.8434 22.839C60.4519 22.4739 60.0874 22.2981 59.6824 22.2981C59.3989 22.2981 59.1424 22.4063 58.9264 22.6226L51.8119 29.2088V13.9132C51.8119 13.5886 51.6364 13.3046 51.2719 13.0882C50.9479 12.8719 50.4754 12.7637 49.9759 12.7637C49.4359 12.7637 49.0309 12.8719 48.7069 13.0882C48.3829 13.3046 48.2344 13.5616 48.2344 13.9132V37.526C48.2344 37.81 48.4099 38.1076 48.7339 38.3916C49.0579 38.6485 49.4494 38.7567 49.9624 38.7567C50.4754 38.7567 50.9074 38.6485 51.2584 38.3916C51.6229 38.1346 51.7984 37.8506 51.7984 37.5666V33.266L54.2824 30.994L59.3044 38.4457C59.5609 38.7702 59.8444 38.9461 60.2494 38.9461C60.6814 38.9461 61.1134 38.7297 61.5859 38.3375C62.0584 37.9453 62.2744 37.5125 62.2744 37.1068C62.2744 36.8904 62.2069 36.7146 62.0584 36.4982L56.7124 28.7219L56.7394 28.6949Z" fill="#221E1F"/>
<path d="M70.7473 22.2305C68.8033 22.2305 67.1023 22.9202 65.7253 24.2185C64.3213 25.5574 63.6328 27.1126 63.6328 28.9248V32.1841C63.6328 34.2127 64.3483 35.8761 65.8738 37.1339C67.3588 38.4051 69.2623 39.0137 71.5708 39.0137C73.1638 39.0137 74.5003 38.7297 75.5803 38.1482C76.6603 37.5396 77.2003 36.9851 77.2003 36.4171C77.2003 36.052 77.0923 35.7003 76.8088 35.3352C76.5523 34.97 76.2283 34.7942 75.8368 34.7942C75.6613 34.7942 75.1483 35.0106 74.3248 35.4434C73.5013 35.8761 72.6238 36.0925 71.6923 36.0925C70.3558 36.0925 69.3163 35.768 68.4793 35.0782C67.6558 34.3885 67.2508 33.4824 67.2508 32.3329V31.535H74.4328C74.9053 31.535 75.2968 31.4944 75.5938 31.4673C75.8908 31.4403 76.2013 31.3186 76.5388 31.1428C76.9033 30.9669 77.1463 30.6694 77.2948 30.2367C77.4703 29.8039 77.5513 29.2224 77.5513 28.5326C77.5513 26.6934 76.9033 25.2057 75.5668 24.0156C74.2303 22.8526 72.6373 22.244 70.7608 22.244L70.7473 22.2305ZM73.8928 29.033C73.7173 29.1818 73.3933 29.2494 72.8803 29.2494H67.2508V28.1269C67.2508 27.2208 67.5748 26.4635 68.2633 25.8549C68.9518 25.2463 69.7753 24.9488 70.7203 24.9488C71.6653 24.9488 72.5293 25.2734 73.1773 25.8955C73.8253 26.5446 74.1493 27.302 74.1493 28.2081C74.1493 28.6408 74.0818 28.8978 73.8928 29.033Z" fill="#221E1F"/>
<path d="M97.9899 22.2578C96.2214 22.2578 94.7094 22.907 93.4404 24.1782C92.1714 25.4495 91.5234 26.9641 91.5234 28.6952V32.4143C91.5234 34.1454 92.1714 35.6736 93.4674 36.9313C94.7634 38.2702 96.2889 38.9193 97.9764 38.9193C99.6639 38.9193 101.23 38.2296 102.526 36.9313C103.822 35.5924 104.47 34.0778 104.47 32.3737V28.6546C104.47 26.9236 103.822 25.3954 102.526 24.1376C101.257 22.8664 99.7044 22.2578 97.9764 22.2578H97.9899ZM102.256 32.4143C102.256 33.6044 101.824 34.6187 100.987 35.5248C100.15 36.4309 99.1509 36.8637 97.9494 36.8637C96.7479 36.8637 95.7894 36.4309 94.9524 35.5248C94.1289 34.6187 93.7239 33.5774 93.7239 32.4143H93.7644V28.6952C93.7644 27.5727 94.1559 26.599 94.9929 25.6929C95.8164 24.7868 96.8289 24.354 97.9899 24.354C99.1509 24.354 100.123 24.7868 100.987 25.6929C101.81 26.5584 102.256 27.5727 102.256 28.6952V32.4143Z" fill="#221E1F"/>
<path d="M89.1905 22.2303H88.1105C87.1655 22.2303 86.342 22.5143 85.5455 23.0959C84.749 23.6774 84.1685 24.3671 83.777 25.1515V23.6368C83.777 23.2717 83.6285 22.9877 83.3045 22.7713C82.9805 22.5549 82.589 22.4467 82.1435 22.4467C81.644 22.4467 81.1985 22.5549 80.8745 22.7713C80.5505 22.9877 80.375 23.2446 80.375 23.5962V37.5124C80.375 37.7964 80.5235 38.0939 80.8745 38.3103C81.239 38.5673 81.6305 38.6755 82.1435 38.6755C82.6565 38.6755 83.0885 38.5673 83.4395 38.3103C83.804 38.0533 83.9795 37.7693 83.9795 37.4853V30.4664C83.9795 28.9788 84.371 27.7887 85.208 26.8555C86.045 25.9224 87.017 25.449 88.097 25.449H89.177C89.5415 25.449 89.825 25.3003 90.122 24.9757C90.3785 24.6511 90.5135 24.2589 90.5135 23.8126C90.5135 23.3663 90.4055 23.0147 90.122 22.6901C89.8655 22.3656 89.5415 22.2168 89.177 22.2168L89.1905 22.2303Z" fill="#221E1F"/>
<path d="M113.8 22.2577C112.747 22.2577 111.816 22.5146 111.019 23.015C110.223 23.5154 109.642 24.1375 109.251 24.8948V23.299C109.251 23.0826 109.183 22.9068 108.967 22.7175C108.751 22.5417 108.535 22.4605 108.252 22.4605C107.928 22.4605 107.671 22.5281 107.455 22.6769C107.28 22.8527 107.172 23.0421 107.172 23.2855V37.7832C107.172 38.0401 107.28 38.2565 107.428 38.3917C107.644 38.5676 107.901 38.6757 108.225 38.6757C108.549 38.6757 108.805 38.5676 109.021 38.3917C109.278 38.2159 109.386 37.9995 109.386 37.7832V28.668C109.386 27.3697 109.777 26.3149 110.614 25.5169C111.411 24.719 112.342 24.3268 113.436 24.3268C114.597 24.3268 115.596 24.7596 116.433 25.6657C117.256 26.5312 117.702 27.5455 117.702 28.668V37.7832C117.702 38.0672 117.81 38.2836 118.026 38.4323C118.282 38.6081 118.498 38.6893 118.782 38.6893C119.065 38.6893 119.362 38.5811 119.578 38.4323C119.794 38.2836 119.902 38.0672 119.902 37.7832V28.641C119.902 26.9099 119.295 25.3817 118.093 24.124C116.905 22.8527 115.461 22.2441 113.827 22.2441L113.8 22.2577Z" fill="#221E1F"/>
<path d="M3.38481 13.0746C3.02031 12.8582 2.62881 12.75 2.11581 12.75C1.58931 12.75 1.14381 12.8582 0.819812 13.0746C0.495813 13.291 0.320312 13.575 0.320312 13.9401V37.7693C0.320312 38.0533 0.495813 38.3509 0.819812 38.5943C1.18431 38.8512 1.57581 38.9865 2.08881 38.9865C2.53431 38.9865 2.97981 38.8512 3.35781 38.5943C3.72231 38.3373 3.89781 38.0533 3.89781 37.7693V13.9401C3.93831 13.575 3.74931 13.291 3.39831 13.0746H3.38481Z" fill="#221E1F"/>
<path d="M132.362 31.3045C132.835 31.3045 133.186 31.2639 133.483 31.2369C133.766 31.1693 134.063 31.0611 134.387 30.9123C134.711 30.7365 134.968 30.4795 135.103 30.0874C135.251 29.6952 135.319 29.1812 135.319 28.5321C135.319 26.7199 134.711 25.2458 133.442 24.0421C132.173 22.8791 130.702 22.2705 128.96 22.2705C127.219 22.2705 125.639 22.9197 124.37 24.1503C123.101 25.381 122.453 26.8687 122.453 28.5997V32.427C122.453 34.3744 123.142 35.9703 124.438 37.1333C125.815 38.3234 127.543 38.9455 129.703 38.9455C131.147 38.9455 132.376 38.6886 133.348 38.1882C134.32 37.6878 134.833 37.1739 134.833 36.7006C134.833 36.4842 134.725 36.2678 134.549 36.0108C134.374 35.7539 134.158 35.6457 133.901 35.6457C133.726 35.6457 133.51 35.7945 133.186 36.0108C132.767 36.2949 132.322 36.5248 131.849 36.7006C131.269 36.9575 130.58 37.0657 129.824 37.0657C128.312 37.0657 127.084 36.6329 126.112 35.835C125.14 35.0101 124.667 33.9146 124.667 32.5758V31.3045H132.362ZM124.667 28.3022C124.667 27.1797 125.059 26.206 125.896 25.3675C126.719 24.5425 127.732 24.1368 128.933 24.1368C130.135 24.1368 131.174 24.5696 131.971 25.4351C132.794 26.3006 133.199 27.3149 133.199 28.4374C133.199 28.9108 133.091 29.2353 132.875 29.3841C132.619 29.5329 132.187 29.6005 131.498 29.6005H124.681V28.3022H124.667Z" fill="#221E1F"/>
<path d="M13.8204 22.555C13.4559 22.3387 13.0239 22.2305 12.4839 22.2305C11.9439 22.2305 11.5389 22.3387 11.2149 22.555L6.38195 25.5979C6.16595 25.8143 6.05795 26.0983 6.12545 26.5446C6.16595 26.9774 6.34145 27.3696 6.70595 27.7347C7.02995 28.0999 7.42145 28.3433 7.86695 28.4515C8.31245 28.5597 8.62295 28.4921 8.83895 28.3027L10.7559 27.1126V37.783C10.7559 38.067 10.9314 38.3645 11.2554 38.608C11.5794 38.8514 12.0114 39.0002 12.5244 39.0002C13.0374 39.0002 13.4694 38.8514 13.8204 38.608C14.1849 38.351 14.3604 38.067 14.3604 37.783V23.38C14.3604 23.0149 14.1849 22.7714 13.8204 22.555Z" fill="#221E1F"/>
<path d="M44.0742 34.6588C43.9662 34.6588 43.5342 34.8347 42.8457 35.1998C42.1302 35.5649 41.3607 35.7408 40.4967 35.7408C37.9722 35.7408 36.7032 34.5506 36.7032 32.1299V29.0599C36.7032 26.6391 37.9722 25.449 40.4562 25.449C41.3202 25.449 42.0762 25.6248 42.7647 25.9494C43.4802 26.274 43.8852 26.4498 43.9932 26.4498C44.3847 26.4498 44.7087 26.274 45.0057 25.8683C45.2892 25.5031 45.4377 25.1109 45.4377 24.7052C45.4377 24.0561 44.9382 23.4745 43.9257 22.9741C42.9132 22.4738 41.6847 22.2168 40.2132 22.2168C37.8642 22.2168 36.1362 22.8254 34.9482 24.0966C33.7602 25.3679 33.1797 27.0313 33.1797 29.0464V32.1569C33.1797 34.2125 33.7872 35.876 34.9482 37.0796C36.1362 38.3509 37.9047 38.9595 40.2537 38.9595C41.7657 38.9595 43.0347 38.6755 44.0742 38.1345C45.1137 37.5935 45.6267 37.012 45.6267 36.3629C45.6267 35.9707 45.4782 35.5649 45.1947 35.1998C44.9112 34.8347 44.5467 34.6588 44.0742 34.6588Z" fill="#221E1F"/>
<path d="M23.2047 22.1895C21.9762 22.1895 20.7882 22.4058 19.7082 22.8386C18.5877 23.2714 18.0477 23.8123 18.0477 24.3939C18.0477 24.8672 18.1557 25.3 18.4122 25.6651C18.6687 26.0573 18.9522 26.2466 19.3572 26.2466C19.4247 26.2466 19.8567 26.0303 20.5857 25.6651C21.3012 25.2729 22.1787 25.0836 23.1507 25.0836C24.2712 25.0836 25.1352 25.4487 25.6752 26.2061C26.2152 26.9634 26.4987 27.8289 26.4987 28.8838V29.533H25.0137C22.4082 29.533 20.4642 29.8981 19.0872 30.6149C17.7102 31.3316 17.0352 32.6029 17.0352 34.4422C17.0352 35.9298 17.4672 37.0523 18.3717 37.8096C19.1952 38.567 20.2887 38.9727 21.6252 38.9727C23.5017 38.9727 25.2297 38.0666 26.7552 36.2949V37.4851C26.7552 37.8096 26.9037 38.0666 27.2277 38.31C27.5517 38.567 27.9162 38.6752 28.3887 38.6752C28.8612 38.6752 29.2932 38.567 29.6172 38.31C29.9412 38.0936 30.1167 37.8096 30.1167 37.4851V28.8838C30.1167 26.9634 29.5362 25.3811 28.4157 24.1099C27.2952 22.8386 25.5672 22.1895 23.2182 22.1895H23.2047ZM26.4852 32.8193C26.4852 33.6442 26.0937 34.4422 25.2972 35.1725C24.5412 35.8892 23.7042 36.2544 22.8402 36.2544C22.1922 36.2544 21.6522 36.038 21.2472 35.6728C20.8557 35.3077 20.6397 34.7262 20.6397 34.0094C20.6397 33.2926 20.8962 32.7787 21.3957 32.4136C21.8952 32.0214 22.4757 31.805 23.1237 31.6968C23.7717 31.5886 24.6087 31.548 25.6077 31.548H26.4717V32.8193H26.4852Z" fill="#221E1F"/>
</g>
</g>
<defs>
<clipPath id="clip0_791719_15496">
<rect width="341" height="53" fill="white" transform="translate(0.320312)"/>
</clipPath>
<clipPath id="clip1_791719_15496">
<rect width="135" height="26.25" fill="white" transform="translate(0.320312 12.75)"/>
</clipPath>
</defs>
</svg>
